# xmcd
#
# Track frame offsets:
#	150
#	17139
#	36790
#	52656
#	67037
#	80033
#	98658
#	118979
#	136177
#	152656
#	168262
#	186840
#	201219
#	215498
#	230694
#	254032
#	268926
#	291241
#	312107
#
# Disc length: 4425 seconds
#
# Revision: 0
# Processed by: cddbd v1.5.1PL0 Copyright (c) Steve Scherf et al.
# Submitted via: audiograbber 1.83.01
#
DISCID=1a114713
DTITLE=MALIA - Yellow Daffodils
DYEAR=2003
DGENRE=Soul
TTITLE0=MALIA - Yellow Daffodils
TTITLE1=MALIA - Purple Shoes
TTITLE2=MALIA - I Believed In Roses
TTITLE3=MALIA - I'm Not Jealous
TTITLE4=MALIA - India Song
TTITLE5=MALIA - Twinckling Little Star
TTITLE6=MALIA - Lifting You High
TTITLE7=MALIA - Angel Hiss
TTITLE8=MALIA - Solitude
TTITLE9=MALIA - Big Brown Eyes
TTITLE10=MALIA - Let It Happen
TTITLE11=MALIA - Moon Glows
TTITLE12=MALIA - Yellow Daffodils (Remixed By Mobile In Motion)
TTITLE13=MALIA - Purple Shoes (Remixed By James
TTITLE14=MALIA - Twinckling Little Star (Remixe
TTITLE15=MALIA - India Song (Remixed By Mobile
TTITLE16=MALIA - Lifting You High (Remixed By G
TTITLE17=Angelique Kidjo - Black Ivory Soul
TTITLE18=Angelique Kidjo - Iemanja
EXTD=
EXTT0=
EXTT1=
EXTT2=
EXTT3=
EXTT4=
EXTT5=
EXTT6=
EXTT7=
EXTT8=
EXTT9=
EXTT10=
EXTT11=
EXTT12=
EXTT13=
EXTT14=
EXTT15=
EXTT16=
EXTT17=
EXTT18=
PLAYORDER=
